<?xml version="1.0" encoding="UTF-8" standalone="no"?>
<!-- Created with Inkscape (http://www.inkscape.org/) -->

<svg
   xmlns:dc="http://purl.org/dc/elements/1.1/"
   xmlns:cc="http://creativecommons.org/ns#"
   xmlns:rdf="http://www.w3.org/1999/02/22-rdf-syntax-ns#"
   xmlns:svg="http://www.w3.org/2000/svg"
   xmlns="http://www.w3.org/2000/svg"
   xmlns:sodipodi="http://sodipodi.sourceforge.net/DTD/sodipodi-0.dtd"
   xmlns:inkscape="http://www.inkscape.org/namespaces/inkscape"
   id="svg2816"
   version="1.1"
   inkscape:version="0.48.2 r9819"
   width="300"
   height="300"
   sodipodi:docname="NO_COPY2.svg">
  <metadata
     id="metadata2822">
    <rdf:RDF>
      <cc:Work
         rdf:about="">
        <dc:format>image/svg+xml</dc:format>
        <dc:type
           rdf:resource="http://purl.org/dc/dcmitype/StillImage" />
        <dc:title></dc:title>
      </cc:Work>
    </rdf:RDF>
  </metadata>
  <defs
     id="defs2820">
    <inkscape:perspective
       sodipodi:type="inkscape:persp3d"
       inkscape:vp_x="0 : 0.5 : 1"
       inkscape:vp_y="0 : 1000 : 0"
       inkscape:vp_z="1 : 0.5 : 1"
       inkscape:persp3d-origin="0.5 : 0.33333333 : 1"
       id="perspective2824" />
    <inkscape:perspective
       id="perspective3610"
       inkscape:persp3d-origin="0.5 : 0.33333333 : 1"
       inkscape:vp_z="1 : 0.5 : 1"
       inkscape:vp_y="0 : 1000 : 0"
       inkscape:vp_x="0 : 0.5 : 1"
       sodipodi:type="inkscape:persp3d" />
    <inkscape:perspective
       id="perspective3732"
       inkscape:persp3d-origin="0.5 : 0.33333333 : 1"
       inkscape:vp_z="1 : 0.5 : 1"
       inkscape:vp_y="0 : 1000 : 0"
       inkscape:vp_x="0 : 0.5 : 1"
       sodipodi:type="inkscape:persp3d" />
    <inkscape:perspective
       id="perspective3770"
       inkscape:persp3d-origin="0.5 : 0.33333333 : 1"
       inkscape:vp_z="1 : 0.5 : 1"
       inkscape:vp_y="0 : 1000 : 0"
       inkscape:vp_x="0 : 0.5 : 1"
       sodipodi:type="inkscape:persp3d" />
    <inkscape:perspective
       sodipodi:type="inkscape:persp3d"
       inkscape:vp_x="0 : 0.5 : 1"
       inkscape:vp_y="0 : 1000 : 0"
       inkscape:vp_z="1 : 0.5 : 1"
       inkscape:persp3d-origin="0.5 : 0.33333333 : 1"
       id="perspective3770-4" />
    <inkscape:perspective
       sodipodi:type="inkscape:persp3d"
       inkscape:vp_x="0 : 0.5 : 1"
       inkscape:vp_y="0 : 1000 : 0"
       inkscape:vp_z="1 : 0.5 : 1"
       inkscape:persp3d-origin="0.5 : 0.33333333 : 1"
       id="perspective3732-2" />
    <inkscape:perspective
       sodipodi:type="inkscape:persp3d"
       inkscape:vp_x="0 : 0.5 : 1"
       inkscape:vp_y="0 : 1000 : 0"
       inkscape:vp_z="1 : 0.5 : 1"
       inkscape:persp3d-origin="0.5 : 0.33333333 : 1"
       id="perspective3610-8" />
    <inkscape:perspective
       id="perspective2824-8"
       inkscape:persp3d-origin="0.5 : 0.33333333 : 1"
       inkscape:vp_z="1 : 0.5 : 1"
       inkscape:vp_y="0 : 1000 : 0"
       inkscape:vp_x="0 : 0.5 : 1"
       sodipodi:type="inkscape:persp3d" />
  </defs>
  <sodipodi:namedview
     pagecolor="#ffffff"
     bordercolor="#666666"
     borderopacity="1"
     objecttolerance="10"
     gridtolerance="10"
     guidetolerance="10"
     inkscape:pageopacity="0"
     inkscape:pageshadow="2"
     inkscape:window-width="1920"
     inkscape:window-height="1018"
     id="namedview2818"
     showgrid="false"
     inkscape:zoom="2"
     inkscape:cx="326.0657"
     inkscape:cy="167.67004"
     inkscape:window-x="-8"
     inkscape:window-y="32"
     inkscape:window-maximized="1"
     inkscape:current-layer="g3814" />
  <g
     id="g3814"
     transform="translate(1.501188,2.2484895)">
    <path
       transform="matrix(1.3956386,0,0,1.4249471,168.57065,-84.405368)"
       d="m 93.032474,162.92316 a 107.41431,105.16715 0 1 1 -214.828614,0 107.41431,105.16715 0 1 1 214.828614,0 z"
       sodipodi:ry="105.16715"
       sodipodi:rx="107.41431"
       sodipodi:cy="162.92316"
       sodipodi:cx="-14.381833"
       id="path2828"
       style="fill:#ff0000;fill-opacity:1;fill-rule:evenodd;stroke:#000000;stroke-width:0;stroke-linecap:square;stroke-linejoin:round;stroke-miterlimit:4;stroke-opacity:0;stroke-dasharray:none;stroke-dashoffset:0"
       sodipodi:type="arc" />
    <path
       transform="matrix(1.1708378,0,0,1.207504,165.33761,-48.978853)"
       d="m 93.032474,162.92316 a 107.41431,105.16715 0 1 1 -214.828614,0 107.41431,105.16715 0 1 1 214.828614,0 z"
       sodipodi:ry="105.16715"
       sodipodi:rx="107.41431"
       sodipodi:cy="162.92316"
       sodipodi:cx="-14.381833"
       id="path2828-1"
       style="fill:#ffffff;fill-opacity:1;fill-rule:evenodd;stroke:#000000;stroke-width:0;stroke-linecap:square;stroke-linejoin:round;stroke-miterlimit:4;stroke-opacity:0;stroke-dasharray:none;stroke-dashoffset:0"
       sodipodi:type="arc" />
    <rect
       transform="matrix(0.68530282,0.72825822,-0.75061315,0.66074193,0,0)"
       y="-22.25984"
       x="69.309128"
       height="30.730171"
       width="279.65967"
       id="rect3624"
       style="fill:#ff0000;fill-opacity:1;fill-rule:evenodd;stroke:#000000;stroke-width:0;stroke-linecap:square;stroke-linejoin:round;stroke-miterlimit:4;stroke-opacity:0;stroke-dasharray:none;stroke-dashoffset:0" />
    <g
       transform="matrix(0.82680277,0,0,1.347336,-9.3637761,-9.7549397)"
       style="font-size:105.0181427px;font-style:normal;font-variant:normal;font-weight:bold;font-stretch:normal;text-align:start;line-height:125%;writing-mode:lr-tb;text-anchor:start;fill:#000000;fill-opacity:1;stroke:#ffffff;stroke-width:2.80427408;stroke-miterlimit:4;stroke-opacity:1;stroke-dasharray:none;font-family:Aharoni;-inkscape-font-specification:Aharoni Bold"
       id="text1354-1-8-2">
      <path
         d="m 106.91174,150.05361 c -5.94835,2.35881 -11.452225,3.53821 -16.511647,3.53821 -8.819915,0 -16.716779,-2.82031 -23.690616,-8.46093 -8.888263,-7.21315 -13.332385,-16.61418 -13.332381,-28.20312 -4e-6,-11.62305 4.444118,-21.041176 13.332381,-28.254392 6.973837,-5.640554 14.921979,-8.460863 23.844452,-8.460935 4.854308,7.2e-5 10.306901,1.179474 16.357811,3.538209 l 0,21.793318 c -1.70934,-2.08527 -3.4528,-3.65781 -5.2304,-4.71761 -3.247681,-1.94853 -6.734608,-2.922818 -10.460792,-2.922872 -4.71765,5.4e-5 -8.819917,1.418754 -12.306814,4.256102 -4.409967,3.58954 -6.614935,8.51226 -6.614912,14.76818 -2.3e-5,6.22181 2.204945,11.12743 6.614912,14.7169 3.486897,2.83742 7.589164,4.25612 12.306814,4.2561 3.726184,2e-5 7.213111,-0.97427 10.460792,-2.92286 1.74341,-1.02555 3.48687,-2.59809 5.2304,-4.71762 z"
         id="path2996"
         inkscape:connector-curvature="0"
         style="stroke:#ffffff;stroke-width:2.80427408;stroke-miterlimit:4;stroke-opacity:1;stroke-dasharray:none" />
      <path
         d="m 192.80304,116.92777 c -8e-5,9.50362 -3.16225,17.8449 -9.48651,25.02385 -7.21322,8.17036 -16.9732,12.25554 -29.27996,12.25554 -12.27265,0 -22.01554,-4.08518 -29.22868,-12.25554 -6.32434,-7.17895 -9.4865,-15.52023 -9.4865,-25.02385 0,-4.34153 0.85463,-8.7942 2.56392,-13.35802 1.70927,-4.563724 3.9997,-8.469424 6.8713,-11.717112 7.21314,-8.170289 16.97312,-12.255463 29.27996,-12.255535 12.30676,7.2e-5 22.06674,4.085246 29.27996,12.255535 6.32426,7.179027 9.48643,15.537392 9.48651,25.075132 z m -18.92173,0 c -6e-5,-4.92269 -1.5726,-9.17879 -4.71761,-12.76832 -4.03395,-4.580816 -9.07632,-6.871248 -15.12713,-6.871303 -4.17068,5.5e-5 -7.94818,1.17091 -11.33252,3.512573 -3.3844,2.34176 -5.79448,5.46119 -7.23025,9.3583 -0.82048,2.22211 -1.23071,4.47835 -1.23068,6.76875 -3e-5,4.71764 1.57251,8.93956 4.71761,12.66576 3.89712,4.61508 8.9224,6.9226 15.07584,6.92259 6.15336,1e-5 11.19573,-2.29042 15.12713,-6.87131 3.14501,-3.65783 4.71755,-7.89684 4.71761,-12.71704 z"
         id="path2998"
         inkscape:connector-curvature="0"
         style="stroke:#ffffff;stroke-width:2.80427408;stroke-miterlimit:4;stroke-opacity:1;stroke-dasharray:none" />
      <path
         d="m 257.6702,104.77479 c -6e-5,6.32438 -1.48714,11.55477 -4.46122,15.69119 -3.86303,5.36716 -10.27282,8.05073 -19.2294,8.05071 l -11.3838,0 0,23.17783 -18.20383,0 0,-69.995003 28.97229,0 c 8.23868,7e-5 14.49464,2.410152 18.76789,7.230253 3.69199,4.136515 5.53801,9.418184 5.53807,15.84502 z m -18.92173,0.20512 c -4e-5,-2.59806 -0.76067,-4.67483 -2.28189,-6.230329 -1.52129,-1.55539 -4.11085,-2.333111 -7.76867,-2.333166 l -6.10213,0 0,17.383375 6.05085,0 c 3.93131,4e-5 6.63196,-0.8546 8.10198,-2.56392 1.3332,-1.53831 1.99982,-3.62363 1.99986,-6.25596 z"
         id="path3000"
         inkscape:connector-curvature="0"
         style="stroke:#ffffff;stroke-width:2.80427408;stroke-miterlimit:4;stroke-opacity:1;stroke-dasharray:none" />
      <path
         d="m 328.48565,81.699517 -26.20325,36.356383 0,33.63862 -18.20383,0 0,-33.63862 -25.33153,-36.356383 21.74204,0 13.22983,19.075563 12.71704,-19.075563 z"
         id="path3002"
         inkscape:connector-curvature="0"
         style="stroke:#ffffff;stroke-width:2.80427408;stroke-miterlimit:4;stroke-opacity:1;stroke-dasharray:none" />
    </g>
  </g>
</svg>
