<svg xmlns="http://www.w3.org/2000/svg" id="svg2816" version="1.1" width="300" height="300"><g id="g3814" transform="translate(1.501 2.248)"><path transform="matrix(1.39564 0 0 1.42495 168.57 -84.405)" d="M93.032 162.923a107.414 105.167 0 1 1-214.828 0 107.414 105.167 0 1 1 214.828 0z" id="path2828" style="fill:red;fill-opacity:1;fill-rule:evenodd;stroke:#000;stroke-width:0;stroke-linecap:square;stroke-linejoin:round;stroke-miterlimit:4;stroke-opacity:0;stroke-dasharray:none;stroke-dashoffset:0"/><path transform="matrix(1.17084 0 0 1.2075 165.338 -48.979)" d="M93.032 162.923a107.414 105.167 0 1 1-214.828 0 107.414 105.167 0 1 1 214.828 0z" id="path2828-1" style="fill:#fff;fill-opacity:1;fill-rule:evenodd;stroke:#000;stroke-width:0;stroke-linecap:square;stroke-linejoin:round;stroke-miterlimit:4;stroke-opacity:0;stroke-dasharray:none;stroke-dashoffset:0"/><path transform="matrix(.6853 .72826 -.75061 .66074 0 0)" id="rect3624" style="fill:red;fill-opacity:1;fill-rule:evenodd;stroke:#000;stroke-width:0;stroke-linecap:square;stroke-linejoin:round;stroke-miterlimit:4;stroke-opacity:0;stroke-dasharray:none;stroke-dashoffset:0" d="M69.309-22.26h279.66V8.47H69.309z"/><g transform="matrix(.8268 0 0 1.34734 -9.364 -9.755)" style="font-variant:normal;text-align:start;writing-mode:lr-tb;text-anchor:start;fill:#000;fill-opacity:1;stroke:#fff;stroke-width:2.80427px;stroke-miterlimit:4;stroke-opacity:1;stroke-dasharray:none;-inkscape-font-specification:Aharoni Bold;font-family:Aharoni;font-size:105.018px;font-style:normal;font-weight:700;font-stretch:100%;line-height:125%" id="text1354-1-8-2"><path d="M106.912 150.054c-5.949 2.358-11.452 3.538-16.512 3.538-8.82 0-16.717-2.82-23.69-8.461-8.889-7.213-13.333-16.614-13.333-28.203 0-11.623 4.444-21.041 13.332-28.255 6.974-5.64 14.922-8.46 23.845-8.46 4.854 0 10.307 1.179 16.358 3.538v21.793c-1.71-2.085-3.453-3.658-5.23-4.718-3.248-1.948-6.735-2.922-10.461-2.923-4.718 0-8.82 1.42-12.307 4.257-4.41 3.59-6.615 8.512-6.615 14.768 0 6.222 2.205 11.127 6.615 14.717 3.487 2.837 7.589 4.256 12.307 4.256 3.726 0 7.213-.974 10.46-2.923 1.744-1.026 3.487-2.598 5.23-4.718z" id="path2996" style="stroke:#fff;stroke-width:2.80427px;stroke-miterlimit:4;stroke-opacity:1;stroke-dasharray:none"/><path d="M192.803 116.928c0 9.503-3.162 17.845-9.486 25.024-7.214 8.17-16.974 12.255-29.28 12.255-12.273 0-22.016-4.085-29.23-12.255-6.323-7.18-9.486-15.52-9.486-25.024 0-4.342.855-8.794 2.564-13.358 1.71-4.564 4-8.47 6.872-11.717 7.213-8.17 16.973-12.256 29.28-12.256 12.306 0 22.066 4.085 29.28 12.256 6.324 7.179 9.486 15.537 9.486 25.075zm-18.922 0c0-4.923-1.572-9.179-4.717-12.769-4.034-4.58-9.077-6.87-15.127-6.87-4.171 0-7.949 1.17-11.333 3.512-3.384 2.341-5.794 5.46-7.23 9.358a19.404 19.404 0 0 0-1.23 6.769c0 4.717 1.572 8.94 4.717 12.666 3.897 4.615 8.922 6.922 15.076 6.922 6.153 0 11.195-2.29 15.127-6.871 3.145-3.658 4.717-7.897 4.717-12.717z" id="path2998" style="stroke:#fff;stroke-width:2.80427px;stroke-miterlimit:4;stroke-opacity:1;stroke-dasharray:none"/><path d="M257.67 104.775c0 6.324-1.487 11.555-4.461 15.691-3.863 5.367-10.273 8.05-19.23 8.05h-11.383v23.179h-18.204V81.7h28.972c8.239 0 14.495 2.41 18.768 7.23 3.692 4.136 5.538 9.418 5.538 15.845zm-18.922.205c0-2.598-.76-4.675-2.281-6.23-1.522-1.556-4.111-2.334-7.77-2.334h-6.101V113.8h6.05c3.932 0 6.633-.855 8.103-2.564 1.333-1.538 2-3.624 2-6.256z" id="path3000" style="stroke:#fff;stroke-width:2.80427px;stroke-miterlimit:4;stroke-opacity:1;stroke-dasharray:none"/><path d="m328.486 81.7-26.204 36.356v33.639H284.08v-33.64L258.747 81.7h21.742l13.23 19.075L306.436 81.7z" id="path3002" style="stroke:#fff;stroke-width:2.80427px;stroke-miterlimit:4;stroke-opacity:1;stroke-dasharray:none"/></g></g></svg>